<mxfile host="app.diagrams.net" modified="2022-12-13T07:16:04.101Z" agent="5.0 (Windows NT 10.0; Win64; x64) AppleWebKit/537.36 (KHTML, like Gecko) Chrome/108.0.0.0 Safari/537.36" version="20.6.2" etag="OR0QpFSL4kawcEXkSs66" type="github">
  <diagram id="F0W9Qt7oCElg6Y91717_" name="Page-1">
    <mxGraphModel dx="1422" dy="762" grid="1" gridSize="10" guides="1" tooltips="1" connect="1" arrows="1" fold="1" page="1" pageScale="1" pageWidth="850" pageHeight="1100" math="0" shadow="0">
      <root>
        <mxCell id="0" />
        <mxCell id="1" parent="0" />
        <mxCell id="xVa6yXE3Rf0tKxil4lyc-1" value="&lt;span style=&quot;font-size: 27px;&quot;&gt;Attack Castle&lt;/span&gt;" style="rounded=1;whiteSpace=wrap;html=1;" vertex="1" parent="1">
          <mxGeometry x="250" y="70" width="175" height="70" as="geometry" />
        </mxCell>
        <mxCell id="xVa6yXE3Rf0tKxil4lyc-2" value="&lt;h1&gt;Castle Status&lt;/h1&gt;&lt;div style=&quot;font-size: 19px;&quot;&gt;&lt;font style=&quot;font-size: 19px;&quot;&gt;0. None&lt;/font&gt;&lt;/div&gt;&lt;div style=&quot;font-size: 19px;&quot;&gt;&lt;font style=&quot;font-size: 19px;&quot;&gt;1.Idle&lt;/font&gt;&lt;/div&gt;&lt;div style=&quot;font-size: 19px;&quot;&gt;&lt;font style=&quot;font-size: 19px;&quot;&gt;2.Seize&lt;/font&gt;&lt;/div&gt;&lt;div style=&quot;font-size: 19px;&quot;&gt;&lt;font style=&quot;font-size: 19px;&quot;&gt;3.SeizePause&lt;/font&gt;&lt;/div&gt;&lt;div style=&quot;font-size: 19px;&quot;&gt;&lt;font style=&quot;font-size: 19px;&quot;&gt;4.Capture&lt;/font&gt;&lt;/div&gt;&lt;div style=&quot;font-size: 19px;&quot;&gt;&lt;font style=&quot;font-size: 19px;&quot;&gt;5.Abandon&lt;/font&gt;&lt;/div&gt;&lt;div&gt;&lt;br&gt;&lt;/div&gt;" style="text;html=1;strokeColor=none;fillColor=none;spacing=5;spacingTop=-20;whiteSpace=wrap;overflow=hidden;rounded=0;" vertex="1" parent="1">
          <mxGeometry x="580" y="50" width="190" height="200" as="geometry" />
        </mxCell>
        <mxCell id="xVa6yXE3Rf0tKxil4lyc-5" value="" style="endArrow=classic;html=1;rounded=0;fontSize=27;" edge="1" parent="1">
          <mxGeometry width="50" height="50" relative="1" as="geometry">
            <mxPoint x="330" y="140" as="sourcePoint" />
            <mxPoint x="330" y="220" as="targetPoint" />
          </mxGeometry>
        </mxCell>
        <mxCell id="xVa6yXE3Rf0tKxil4lyc-6" value="&lt;span style=&quot;font-size: 15px;&quot;&gt;Is Fight Win&lt;/span&gt;" style="rhombus;whiteSpace=wrap;html=1;fontSize=27;" vertex="1" parent="1">
          <mxGeometry x="260" y="340" width="140" height="80" as="geometry" />
        </mxCell>
        <mxCell id="xVa6yXE3Rf0tKxil4lyc-7" value="" style="endArrow=classic;html=1;rounded=0;fontSize=15;" edge="1" parent="1">
          <mxGeometry width="50" height="50" relative="1" as="geometry">
            <mxPoint x="329.5" y="420" as="sourcePoint" />
            <mxPoint x="329.5" y="490" as="targetPoint" />
          </mxGeometry>
        </mxCell>
        <mxCell id="xVa6yXE3Rf0tKxil4lyc-8" value="" style="endArrow=none;html=1;rounded=0;fontSize=15;" edge="1" parent="1">
          <mxGeometry width="50" height="50" relative="1" as="geometry">
            <mxPoint x="400" y="379.5" as="sourcePoint" />
            <mxPoint x="560" y="380" as="targetPoint" />
          </mxGeometry>
        </mxCell>
        <mxCell id="xVa6yXE3Rf0tKxil4lyc-9" value="" style="endArrow=classic;html=1;rounded=0;fontSize=15;entryX=0.5;entryY=0;entryDx=0;entryDy=0;" edge="1" parent="1" target="xVa6yXE3Rf0tKxil4lyc-15">
          <mxGeometry width="50" height="50" relative="1" as="geometry">
            <mxPoint x="560" y="380" as="sourcePoint" />
            <mxPoint x="560" y="480" as="targetPoint" />
          </mxGeometry>
        </mxCell>
        <mxCell id="xVa6yXE3Rf0tKxil4lyc-10" value="Y" style="text;html=1;strokeColor=none;fillColor=none;align=center;verticalAlign=middle;whiteSpace=wrap;rounded=0;fontSize=15;" vertex="1" parent="1">
          <mxGeometry x="280" y="430" width="60" height="30" as="geometry" />
        </mxCell>
        <mxCell id="xVa6yXE3Rf0tKxil4lyc-11" value="N" style="text;html=1;strokeColor=none;fillColor=none;align=center;verticalAlign=middle;whiteSpace=wrap;rounded=0;fontSize=15;" vertex="1" parent="1">
          <mxGeometry x="450" y="350" width="60" height="30" as="geometry" />
        </mxCell>
        <mxCell id="xVa6yXE3Rf0tKxil4lyc-12" value="Create FightTask" style="rounded=0;whiteSpace=wrap;html=1;fontSize=15;" vertex="1" parent="1">
          <mxGeometry x="260" y="220" width="140" height="60" as="geometry" />
        </mxCell>
        <mxCell id="xVa6yXE3Rf0tKxil4lyc-13" value="" style="endArrow=classic;html=1;rounded=0;fontSize=15;" edge="1" parent="1">
          <mxGeometry width="50" height="50" relative="1" as="geometry">
            <mxPoint x="329.5" y="280" as="sourcePoint" />
            <mxPoint x="330" y="340" as="targetPoint" />
            <Array as="points">
              <mxPoint x="329.5" y="320" />
            </Array>
          </mxGeometry>
        </mxCell>
        <mxCell id="xVa6yXE3Rf0tKxil4lyc-18" value="" style="edgeStyle=orthogonalEdgeStyle;rounded=0;orthogonalLoop=1;jettySize=auto;html=1;fontSize=15;" edge="1" parent="1" source="xVa6yXE3Rf0tKxil4lyc-14" target="xVa6yXE3Rf0tKxil4lyc-17">
          <mxGeometry relative="1" as="geometry" />
        </mxCell>
        <mxCell id="xVa6yXE3Rf0tKxil4lyc-14" value="Exchage Castle Regent" style="rounded=0;whiteSpace=wrap;html=1;fontSize=15;" vertex="1" parent="1">
          <mxGeometry x="270" y="490" width="120" height="60" as="geometry" />
        </mxCell>
        <mxCell id="xVa6yXE3Rf0tKxil4lyc-15" value="FightGroup Retreat" style="rounded=0;whiteSpace=wrap;html=1;fontSize=15;" vertex="1" parent="1">
          <mxGeometry x="500" y="490" width="120" height="60" as="geometry" />
        </mxCell>
        <mxCell id="xVa6yXE3Rf0tKxil4lyc-19" value="" style="edgeStyle=orthogonalEdgeStyle;rounded=0;orthogonalLoop=1;jettySize=auto;html=1;fontSize=15;entryX=0.5;entryY=0;entryDx=0;entryDy=0;" edge="1" parent="1" source="xVa6yXE3Rf0tKxil4lyc-17" target="xVa6yXE3Rf0tKxil4lyc-20">
          <mxGeometry relative="1" as="geometry">
            <mxPoint x="480" y="640" as="targetPoint" />
            <Array as="points">
              <mxPoint x="330" y="710" />
              <mxPoint x="330" y="710" />
            </Array>
          </mxGeometry>
        </mxCell>
        <mxCell id="xVa6yXE3Rf0tKxil4lyc-17" value="Progess Increase" style="rounded=0;whiteSpace=wrap;html=1;fontSize=15;" vertex="1" parent="1">
          <mxGeometry x="270" y="610" width="120" height="60" as="geometry" />
        </mxCell>
        <mxCell id="xVa6yXE3Rf0tKxil4lyc-22" value="" style="edgeStyle=orthogonalEdgeStyle;rounded=0;orthogonalLoop=1;jettySize=auto;html=1;fontSize=15;entryX=1;entryY=0.5;entryDx=0;entryDy=0;exitX=1;exitY=0.5;exitDx=0;exitDy=0;" edge="1" parent="1" source="xVa6yXE3Rf0tKxil4lyc-20" target="xVa6yXE3Rf0tKxil4lyc-17">
          <mxGeometry relative="1" as="geometry">
            <mxPoint x="560" y="790" as="targetPoint" />
            <Array as="points">
              <mxPoint x="440" y="790" />
              <mxPoint x="440" y="640" />
            </Array>
          </mxGeometry>
        </mxCell>
        <mxCell id="xVa6yXE3Rf0tKxil4lyc-25" value="" style="edgeStyle=orthogonalEdgeStyle;rounded=0;orthogonalLoop=1;jettySize=auto;html=1;fontSize=15;" edge="1" parent="1" source="xVa6yXE3Rf0tKxil4lyc-20" target="xVa6yXE3Rf0tKxil4lyc-24">
          <mxGeometry relative="1" as="geometry" />
        </mxCell>
        <mxCell id="xVa6yXE3Rf0tKxil4lyc-20" value="Progess Reach Limit" style="rhombus;whiteSpace=wrap;html=1;fontSize=15;" vertex="1" parent="1">
          <mxGeometry x="225" y="750" width="210" height="80" as="geometry" />
        </mxCell>
        <mxCell id="xVa6yXE3Rf0tKxil4lyc-23" value="N" style="text;html=1;align=center;verticalAlign=middle;resizable=0;points=[];autosize=1;strokeColor=none;fillColor=none;fontSize=15;" vertex="1" parent="1">
          <mxGeometry x="405" y="700" width="30" height="30" as="geometry" />
        </mxCell>
        <mxCell id="xVa6yXE3Rf0tKxil4lyc-38" value="" style="edgeStyle=orthogonalEdgeStyle;rounded=0;orthogonalLoop=1;jettySize=auto;html=1;fontSize=15;" edge="1" parent="1" source="xVa6yXE3Rf0tKxil4lyc-24" target="xVa6yXE3Rf0tKxil4lyc-37">
          <mxGeometry relative="1" as="geometry" />
        </mxCell>
        <mxCell id="xVa6yXE3Rf0tKxil4lyc-24" value="Totally Capture" style="whiteSpace=wrap;html=1;fontSize=15;" vertex="1" parent="1">
          <mxGeometry x="270" y="920" width="120" height="60" as="geometry" />
        </mxCell>
        <mxCell id="xVa6yXE3Rf0tKxil4lyc-26" value="Y" style="text;html=1;align=center;verticalAlign=middle;resizable=0;points=[];autosize=1;strokeColor=none;fillColor=none;fontSize=15;" vertex="1" parent="1">
          <mxGeometry x="335" y="845" width="30" height="30" as="geometry" />
        </mxCell>
        <mxCell id="xVa6yXE3Rf0tKxil4lyc-30" value="" style="edgeStyle=orthogonalEdgeStyle;rounded=0;orthogonalLoop=1;jettySize=auto;html=1;fontSize=15;" edge="1" parent="1" source="xVa6yXE3Rf0tKxil4lyc-27" target="xVa6yXE3Rf0tKxil4lyc-29">
          <mxGeometry relative="1" as="geometry" />
        </mxCell>
        <mxCell id="xVa6yXE3Rf0tKxil4lyc-36" value="" style="edgeStyle=orthogonalEdgeStyle;rounded=0;orthogonalLoop=1;jettySize=auto;html=1;fontSize=15;" edge="1" parent="1" source="xVa6yXE3Rf0tKxil4lyc-27">
          <mxGeometry relative="1" as="geometry">
            <mxPoint x="390" y="640" as="targetPoint" />
            <Array as="points">
              <mxPoint x="490" y="640" />
            </Array>
          </mxGeometry>
        </mxCell>
        <mxCell id="xVa6yXE3Rf0tKxil4lyc-27" value="Garrison Retreat" style="rhombus;whiteSpace=wrap;html=1;fontSize=15;" vertex="1" parent="1">
          <mxGeometry x="520" y="640" width="210" height="130" as="geometry" />
        </mxCell>
        <mxCell id="xVa6yXE3Rf0tKxil4lyc-28" value="" style="endArrow=classic;html=1;rounded=0;fontSize=15;entryX=0;entryY=0.5;entryDx=0;entryDy=0;" edge="1" parent="1" target="xVa6yXE3Rf0tKxil4lyc-27">
          <mxGeometry width="50" height="50" relative="1" as="geometry">
            <mxPoint x="440" y="705" as="sourcePoint" />
            <mxPoint x="500" y="700" as="targetPoint" />
            <Array as="points" />
          </mxGeometry>
        </mxCell>
        <mxCell id="xVa6yXE3Rf0tKxil4lyc-29" value="Progess Stop Increase" style="whiteSpace=wrap;html=1;fontSize=15;" vertex="1" parent="1">
          <mxGeometry x="565" y="860" width="120" height="60" as="geometry" />
        </mxCell>
        <mxCell id="xVa6yXE3Rf0tKxil4lyc-33" value="Y" style="text;html=1;align=center;verticalAlign=middle;resizable=0;points=[];autosize=1;strokeColor=none;fillColor=none;fontSize=15;" vertex="1" parent="1">
          <mxGeometry x="635" y="800" width="30" height="30" as="geometry" />
        </mxCell>
        <mxCell id="xVa6yXE3Rf0tKxil4lyc-34" value="N" style="text;html=1;align=center;verticalAlign=middle;resizable=0;points=[];autosize=1;strokeColor=none;fillColor=none;fontSize=15;" vertex="1" parent="1">
          <mxGeometry x="520" y="600" width="30" height="30" as="geometry" />
        </mxCell>
        <mxCell id="xVa6yXE3Rf0tKxil4lyc-40" value="" style="edgeStyle=orthogonalEdgeStyle;rounded=0;orthogonalLoop=1;jettySize=auto;html=1;fontSize=15;" edge="1" parent="1" source="xVa6yXE3Rf0tKxil4lyc-37" target="xVa6yXE3Rf0tKxil4lyc-39">
          <mxGeometry relative="1" as="geometry" />
        </mxCell>
        <mxCell id="xVa6yXE3Rf0tKxil4lyc-42" value="" style="edgeStyle=orthogonalEdgeStyle;rounded=0;orthogonalLoop=1;jettySize=auto;html=1;fontSize=15;" edge="1" parent="1" source="xVa6yXE3Rf0tKxil4lyc-37" target="xVa6yXE3Rf0tKxil4lyc-41">
          <mxGeometry relative="1" as="geometry" />
        </mxCell>
        <mxCell id="xVa6yXE3Rf0tKxil4lyc-37" value="Satisfy Time Limit" style="rhombus;whiteSpace=wrap;html=1;fontSize=15;" vertex="1" parent="1">
          <mxGeometry x="220" y="1050" width="220" height="80" as="geometry" />
        </mxCell>
        <mxCell id="xVa6yXE3Rf0tKxil4lyc-39" value="Could Abandon" style="whiteSpace=wrap;html=1;fontSize=15;" vertex="1" parent="1">
          <mxGeometry x="270" y="1220" width="120" height="60" as="geometry" />
        </mxCell>
        <mxCell id="xVa6yXE3Rf0tKxil4lyc-41" value="Cannot Abandon" style="whiteSpace=wrap;html=1;fontSize=15;" vertex="1" parent="1">
          <mxGeometry x="570" y="1060" width="120" height="60" as="geometry" />
        </mxCell>
      </root>
    </mxGraphModel>
  </diagram>
</mxfile>
